PathFileType	4	(X/Y/Z)	/Users/itak/Documents/Research/Walk-IL/dataset/trc/00552_00009.trc
DataRate	CameraRate	NumFrames	NumMarkers	Units	OrigDataRate	OrigDataStartFrame	OrigNumFrames
100.000000	100.000000	4	53	mm	100.000000	346	554
Frame#	Time	RPSI			LPSI			L3			STRN			T10			C7			CLAV			RBAK			LBAK			LSHO			LUPA			LAEL			LAOL			LWTS			LWPS			LFRA			LIFD			LHPS			LHTS			RSHO			RUPA			RAEL			RAOL			RWTS			RWPS			RFRA			RIFD			RHTS			RHPS			RBHD			LFHD			RFHD			LBHD			LHIP			RHIP			RASI			LASI			LKNE			LTHI			LANK			LTIP			LTOE			LMT1			LMT5			LHEE			RKNE			RTHI			RANK			RTIP			RTOE			RMT1			RMT5			RHEE			
		X1	Y1	Z1	X2	Y2	Z2	X3	Y3	Z3	X4	Y4	Z4	X5	Y5	Z5	X6	Y6	Z6	X7	Y7	Z7	X8	Y8	Z8	X9	Y9	Z9	X10	Y10	Z10	X11	Y11	Z11	X12	Y12	Z12	X13	Y13	Z13	X14	Y14	Z14	X15	Y15	Z15	X16	Y16	Z16	X17	Y17	Z17	X18	Y18	Z18	X19	Y19	Z19	X20	Y20	Z20	X21	Y21	Z21	X22	Y22	Z22	X23	Y23	Z23	X24	Y24	Z24	X25	Y25	Z25	X26	Y26	Z26	X27	Y27	Z27	X28	Y28	Z28	X29	Y29	Z29	X30	Y30	Z30	X31	Y31	Z31	X32	Y32	Z32	X33	Y33	Z33	X34	Y34	Z34	X35	Y35	Z35	X36	Y36	Z36	X37	Y37	Z37	X38	Y38	Z38	X39	Y39	Z39	X40	Y40	Z40	X41	Y41	Z41	X42	Y42	Z42	X43	Y43	Z43	X44	Y44	Z44	X45	Y45	Z45	X46	Y46	Z46	X47	Y47	Z47	X48	Y48	Z48	X49	Y49	Z49	X50	Y50	Z50	X51	Y51	Z51	X52	Y52	Z52	X53	Y53	Z53	

347	3.46	558.071044921875	988.8743286132812	346.362060546875	556.51708984375	988.3306274414062	212.1073608398438	559.9420776367188	1085.11328125	268.4986877441406	791.6514892578125	1275.194213867188	268.8246154785156	549.8230590820312	1209.396850585938	263.7775573730469	593.8746948242188	1483.036376953125	281.2471008300781	770.7999267578125	1386.45068359375	274.1842956542969	523.4755859375	1355.426635742188	361.9317626953125	562.6231079101562	1432.414794921875	186.4655303955078	664.619873046875	1460.591552734375	110.8647842407227	668.424072265625	1336.369995117188	27.77065277099609	718.277099609375	1119.082763671875	2.699651479721069	627.2201538085938	1097.728759765625	43.83022308349609	844.7952270507812	893.701904296875	59.07203674316406	814.6013793945312	866.544921875	-18.30286026000977	755.391845703125	1037.977416992188	-2.562319040298462	866.7981567382812	724.1834106445312	53.23278427124023	829.6691284179688	808.1005249023438	-8.467311859130859	873.733642578125	819.3849487304688	42.23204803466797	650.799072265625	1443.255126953125	438.2536315917969	626.6185302734375	1377.512451171875	502.3832397460938	604.1741333007812	1090.390502929688	547.4476928710938	551.3154907226562	1077.046142578125	513.601806640625	719.75341796875	856.4771728515625	531.9015502929688	665.9548950195312	843.963134765625	592.4544677734375	608.4328002929688	1035.089599609375	557.5658569335938	709.8869018554688	682.4461059570312	543.1055908203125	734.5814819335938	762.3662719726562	550.0738525390625	673.2929077148438	767.7517700195312	592.8567504882812	686.6387329101562	1666.27783203125	354.6279602050781	836.7933959960938	1679.191284179688	211.6816864013672	826.5297241210938	1675.544799804688	355.5646667480469	705.0089111328125	1668.090209960938	190.3883666992188	677.1915893554688	907.16796875	78.56320953369141	697.1526489257812	928.7424926757812	459.83349609375	775.53466796875	962.0582275390625	395.77099609375	759.1478881835938	935.7096557617188	123.1054077148438	695.832275390625	456.379150390625	114.9365615844727	702.3966674804688	627.6732177734375	92.31417083740234	281.4013366699219	189.5918426513672	147.8035125732422	473.9263000488281	324.7628173828125	125.6709671020508	409.7010803222656	36.41318130493164	208.2435150146484	372.7785034179688	93.82037353515625	241.1994323730469	341.9299621582031	86.59908294677734	140.5657348632812	258.5668029785156	256.1059265136719	197.955078125	846.39306640625	507.9027709960938	386.8489074707031	770.8665161132812	783.9956665039062	451.6634216308594	780.4861450195312	39.19945526123047	356.2015991210938	862.6815795898438	360.7471923828125	366.76806640625	999.1884765625	41.86527633666992	300.3882751464844	932.8746948242188	43.8830451965332	265.1440124511719	914.22412109375	39.65705490112305	369.4002990722656	723.6342163085938	35.53718185424805	300.2283020019531	
348	3.47	567.1153564453125	990.28857421875	347.3859252929688	565.5864868164062	989.2520751953125	213.0879211425781	569.2282104492188	1086.427978515625	269.6310729980469	800.9381103515625	1276.323608398438	269.3213500976562	559.1015625	1210.745971679688	265.0530090332031	603.369873046875	1484.380249023438	282.4284057617188	780.1732177734375	1387.608032226562	274.6720275878906	533.2258911132812	1356.831176757812	363.4078979492188	571.7303466796875	1433.721557617188	187.8224182128906	673.3997802734375	1461.789184570312	111.7610855102539	676.3084106445312	1337.47900390625	28.64542198181152	724.7572021484375	1119.897338867188	3.269385576248169	633.7922973632812	1099.202392578125	44.91824722290039	849.2303466796875	893.0256958007812	58.60023498535156	818.3366088867188	866.369873046875	-18.69613075256348	761.0675659179688	1038.4287109375	-2.320508718490601	869.0176391601562	723.2061767578125	52.41704177856445	832.7446899414062	807.7196044921875	-9.020637512207031	877.1920166015625	818.3643188476562	41.48555374145508	660.875	1444.548828125	439.196533203125	636.8845825195312	1378.955444335938	503.5124206542969	614.5579223632812	1091.905883789062	549.1519165039062	561.5484008789062	1078.385009765625	515.696533203125	731.4778442382812	858.8772583007812	532.9490966796875	678.0802612304688	845.7725830078125	593.60986328125	619.1000366210938	1036.548095703125	559.26416015625	723.7622680664062	684.7939453125	544.1864624023438	747.3737182617188	764.9405517578125	551.0623779296875	686.1990356445312	769.6990356445312	594.0120849609375	696.0814819335938	1667.400390625	355.4716491699219	846.1347045898438	1680.587524414062	212.4541168212891	835.9524536132812	1676.811767578125	356.3684692382812	714.3696899414062	1669.363525390625	191.2170257568359	686.2808837890625	908.2941284179688	79.67380523681641	705.976806640625	929.7220458984375	460.6764526367188	784.622314453125	962.9944458007812	396.7812805175781	768.2941284179688	937.0276489257812	123.9863128662109	715.1689453125	457.5186462402344	113.457878112793	717.6778564453125	629.04833984375	91.67044067382812	297.7605590820312	196.3582916259766	147.8079071044922	492.3301086425781	328.3074645996094	124.9864349365234	424.947998046875	38.58161926269531	203.2747344970703	389.5887145996094	97.793701171875	238.054931640625	356.4506530761719	92.52987670898438	138.0374908447266	276.2823486328125	262.3370971679688	199.0437927246094	850.9950561523438	507.3624877929688	387.0843200683594	778.6424560546875	784.44482421875	452.23388671875	780.4415283203125	39.26268768310547	356.132080078125	865.6492919921875	360.0412902832031	366.8538208007812	999.2511596679688	41.80198669433594	300.3065490722656	932.9566650390625	43.85507965087891	265.0314025878906	914.233642578125	39.62292098999023	369.3843078613281	723.609619140625	35.71102905273438	300.230712890625	
349	3.48	575.9320068359375	991.624755859375	348.2643432617188	574.4927978515625	990.1447143554688	213.9194946289062	578.302001953125	1087.734375	270.6430358886719	810.0595092773438	1277.441772460938	269.7679443359375	568.1590576171875	1212.112670898438	266.3088073730469	612.7584838867188	1485.726196289062	283.5982360839844	789.4083251953125	1388.741455078125	275.0999755859375	542.8436279296875	1358.262451171875	364.896484375	580.6920166015625	1435.031982421875	189.1844482421875	682.0069580078125	1462.968139648438	112.6263809204102	683.9669799804688	1338.582397460938	29.49410820007324	731.025634765625	1120.733276367188	3.779749155044556	640.1973876953125	1100.672607421875	45.99910736083984	853.6336669921875	892.5194091796875	57.99321365356445	822.0038452148438	866.3331909179688	-19.17037200927734	766.56640625	1038.930786132812	-2.150355815887451	871.5219116210938	722.4747924804688	51.42505645751953	835.8861694335938	807.5159912109375	-9.694817543029785	880.7290649414062	817.6013793945312	40.58140563964844	670.8638305664062	1445.828247070312	440.1153869628906	647.1241455078125	1380.395629882812	504.6180725097656	625.0036010742188	1093.4130859375	550.8524780273438	571.815673828125	1079.673950195312	517.8391723632812	743.3148803710938	861.3045654296875	533.8755493164062	690.399658203125	847.618408203125	594.726318359375	629.8588256835938	1038.006103515625	560.9635620117188	737.8155517578125	687.1786499023438	545.2093505859375	760.3383178710938	767.5857543945312	552.0115356445312	699.3248291015625	771.69189453125	595.1249389648438	705.5047607421875	1668.522216796875	356.2478637695312	855.4373779296875	1681.899658203125	213.1141204833984	845.373291015625	1678.027099609375	357.070556640625	723.6891479492188	1670.591186523438	191.9671478271484	695.2839965820312	909.6456298828125	80.61199951171875	714.58544921875	930.6825561523438	461.4995727539062	793.4819946289062	963.9111328125	397.7440185546875	777.3367919921875	938.447021484375	124.8281097412109	734.4105224609375	459.0337219238281	112.1221618652344	732.9314575195312	630.6734619140625	91.08590698242188	315.0782165527344	201.8377532958984	147.938232421875	510.9673767089844	331.5682983398438	124.432014465332	442.5127868652344	41.28049850463867	197.8429565429688	408.1650695800781	101.1377639770508	234.6245574951172	372.9464416503906	97.95173645019531	135.18505859375	294.4767456054688	266.8930358886719	200.5053253173828	855.396728515625	506.8150939941406	387.3156127929688	786.2532958984375	784.8743286132812	452.68896484375	780.3971557617188	39.3168830871582	356.0484313964844	868.4142456054688	359.3630676269531	366.9190979003906	999.3267211914062	41.72771453857422	300.2394104003906	933.0386352539062	43.83248138427734	264.9334106445312	914.24267578125	39.57821655273438	369.3930969238281	723.5881958007812	35.87423324584961	300.2099609375	
350	3.49	584.5438232421875	992.8916625976562	349.001220703125	583.2365112304688	991.0258178710938	214.6051788330078	587.17236328125	1089.042602539062	271.5403747558594	819.02294921875	1278.564086914062	270.177978515625	577.0108032226562	1213.49609375	267.5393676757812	622.035400390625	1487.073608398438	284.7499084472656	798.5064086914062	1389.86279296875	275.4823303222656	552.3245239257812	1359.7158203125	366.38623046875	589.5150146484375	1436.348876953125	190.5432891845703	690.4556884765625	1464.139770507812	113.4635848999023	691.4243774414062	1339.695434570312	30.32107353210449	737.0814819335938	1121.599365234375	4.240019798278809	646.4354858398438	1102.15673828125	47.09114074707031	858.0170288085938	892.18701171875	57.23962783813477	825.5936279296875	866.4293823242188	-19.71523094177246	771.8862915039062	1039.488891601562	-2.046209573745728	874.3314208984375	721.9869995117188	50.24064636230469	839.0799560546875	807.4813842773438	-10.48211288452148	884.3386840820312	817.0855712890625	39.52344131469727	680.7490234375	1447.106811523438	441.0083618164062	657.3128051757812	1381.839233398438	505.6988525390625	635.5126342773438	1094.916259765625	552.5309448242188	582.1215209960938	1080.917602539062	520.0067138671875	755.265869140625	863.751708984375	534.6792602539062	702.89697265625	849.5065307617188	595.8052978515625	640.7162475585938	1039.475708007812	562.6453857421875	751.9600219726562	689.5903930664062	546.1602783203125	773.4317016601562	770.2853393554688	552.892578125	712.6343383789062	773.7317504882812	596.1900024414062	714.9091796875	1669.65576171875	356.9606018066406	864.70166015625	1683.12109375	213.6643676757812	854.7998046875	1679.189453125	357.66552734375	732.96044921875	1671.78125	192.6457672119141	704.2359619140625	911.2428588867188	81.41379547119141	722.9671020507812	931.610595703125	462.2887268066406	802.1229248046875	964.8173828125	398.6763916015625	786.2759399414062	939.9627685546875	125.655143737793	753.5003662109375	460.90966796875	110.9474258422852	748.0853881835938	632.53759765625	90.57640075683594	333.330322265625	205.9292907714844	148.1003875732422	529.8298950195312	334.4606323242188	123.9860687255859	462.2197570800781	44.21790313720703	192.1468811035156	428.3050537109375	103.7253189086914	231.0228881835938	391.3150939941406	102.6709289550781	132.100341796875	313.1336975097656	269.732421875	202.1767272949219	859.5609130859375	506.2555847167969	387.5843200683594	793.67041015625	785.2767333984375	453.0821533203125	780.350830078125	39.36135482788086	355.9565124511719	870.9533081054688	358.7167358398438	367.0135803222656	999.4049072265625	41.64443969726562	300.2002868652344	933.11376953125	43.82208633422852	264.8615417480469	914.2509765625	39.52455520629883	369.4291076660156	723.5712280273438	36.02347183227539	300.1651000976562	
